inDegrees=no
num_controls=7
num_derivatives=13
num_iterations=95
num_multipliers=7
num_parameters=0
num_slacks=7
num_states=26
objective=4.827593
objective_accelerations=0.464228
objective_balance=0.019526
objective_effort=0.137681
objective_height=4.129924
objective_ligament=0.076234
solver_duration=1055.299182
status=Solve_Succeeded
success=true
DataType=double
version=3
OpenSimVersion=4.4-2022-07-23-0e9fedc
endheader
time	/jointset/ground_pelvis/pelvis_tilt/value	/jointset/ground_pelvis/pelvis_tx/value	/jointset/ground_pelvis/pelvis_ty/value	/jointset/hip_l/hip_flexion_l/value	/jointset/hip_l/hip_adduction_l/value	/jointset/hip_l/hip_rotation_l/value	/jointset/back/lumbar_extension/value	/jointset/patellofemoral_l/patellar_flexion_l/value	/jointset/knee_l/knee_flexion_l/value	/jointset/knee_l/knee_adduction_l/value	/jointset/knee_l/knee_rotation_l/value	/jointset/ankle_l/ankle_angle_l/value	/jointset/subtalar_l/subtalar_angle_l/value	/jointset/ground_pelvis/pelvis_tilt/speed	/jointset/ground_pelvis/pelvis_tx/speed	/jointset/ground_pelvis/pelvis_ty/speed	/jointset/hip_l/hip_flexion_l/speed	/jointset/hip_l/hip_adduction_l/speed	/jointset/hip_l/hip_rotation_l/speed	/jointset/back/lumbar_extension/speed	/jointset/patellofemoral_l/patellar_flexion_l/speed	/jointset/knee_l/knee_flexion_l/speed	/jointset/knee_l/knee_adduction_l/speed	/jointset/knee_l/knee_rotation_l/speed	/jointset/ankle_l/ankle_angle_l/speed	/jointset/subtalar_l/subtalar_angle_l/speed	/forceset/tau_hip_flexion_l	/forceset/tau_hip_adduction_l	/forceset/tau_hip_rotation_l	/forceset/tau_knee_flexion_l	/forceset/tau_ankle_angle_l	/forceset/tau_subtalar_angle_l	/forceset/tau_lumbar_extension	lambda_cid13_p0	lambda_cid13_p1	lambda_cid13_p2	lambda_cid13_p3	lambda_cid13_p4	lambda_cid13_p5	lambda_cid14_p0	/jointset/ground_pelvis/pelvis_tilt/accel	/jointset/ground_pelvis/pelvis_tx/accel	/jointset/ground_pelvis/pelvis_ty/accel	/jointset/hip_l/hip_flexion_l/accel	/jointset/hip_l/hip_adduction_l/accel	/jointset/hip_l/hip_rotation_l/accel	/jointset/back/lumbar_extension/accel	/jointset/patellofemoral_l/patellar_flexion_l/accel	/jointset/knee_l/knee_flexion_l/accel	/jointset/knee_l/knee_adduction_l/accel	/jointset/knee_l/knee_rotation_l/accel	/jointset/ankle_l/ankle_angle_l/accel	/jointset/subtalar_l/subtalar_angle_l/accel	gamma_cid13_p0	gamma_cid13_p1	gamma_cid13_p2	gamma_cid13_p3	gamma_cid13_p4	gamma_cid13_p5	gamma_cid14_p0
1.5	-0.2751479564804433	0.09103408439562873	0.8244709912204139	0.7933488212539348	-0.3672270831709978	-0.08646542319438948	-0.3083001398515989	0.6842309994413365	0.6842309994412216	-0.07168691804828135	-0.1740349931811707	0.272159004575377	0.1425662516096273	0.2972815333514408	0.2080195372875124	0.3352845540347054	-1.74114639954118	0.02461078814406515	-0.5682076245800456	0.6192391486339826	-1.840632420641243	-1.840632420641288	-0.2185568764290958	0.01362843761155261	-0.5456965023831568	-0.1745828974241183	-0.1066566461341603	0.04473648509778675	0.009230218116700786	-0.1148548729231926	-0.06571777860274941	0.001313576444875867	0.1097404219868825	-45.62231362274358	4.783383693686977	1.965353639050246	2.124400573320358	-438.1996223612767	-52.4910782756052	-15.88442043300369	0.2960731874463788	0.3056595113050544	-0.5409698372989482	-0.933778020724277	0.2360069062371659	-0.2983923298293621	1.244938097155263	-0.9933964964892907	-0.9933964964895784	-0.3837701176305464	0.2887471208657623	-0.4365186220176339	0.3066059468057131	7.360657202705832e-08	3.000524126512432e-06	-1.144897642884637e-06	3.457929554134876e-07	3.121748403677674e-07	2.07390636053459e-06	3.601041221530851e-07
1.51	-0.2721604280673455	0.09312928759427451	0.8277961058168645	0.7758921300387902	-0.3669705005501205	-0.09216307031130795	-0.3020470408952	0.6657769854061331	0.6657769854060132	-0.07389367047662924	-0.1738868343516871	0.2666804563682763	0.1408340551155274	0.3001675284399291	0.2109866098915761	0.3296668082623809	-1.749932706067238	0.02671906693320214	-0.57127474359068	0.631272506102195	-1.849905345417632	-1.84990534541767	-0.222748389377247	0.01601692653191956	-0.5499282400307632	-0.1718140096123525	-0.1031923835906002	0.0429999358839713	0.009730143514323684	-0.1125834193319993	-0.06493122080184435	0.0004748521072576039	0.1067240491118927	-45.30622617770618	4.968636653346915	2.077068559999405	2.173834844588874	-436.0078805265915	-52.53766117688026	-16.6164213129013	0.2763925198482259	0.2871227335253891	-0.5828203383066617	-0.8121591209890634	0.2002350828269761	-0.3033835045061136	1.166314089128957	-0.8545774837642438	-0.8545774837635887	-0.4297055570961256	0.2156408026770051	-0.4036565630777795	0.2681436385878463	1.230912401823861e-07	3.028486108847847e-06	-1.68432010830113e-06	3.33656292984803e-07	4.036609468679799e-07	2.358976590287196e-06	4.298788614470749e-07
1.52	-0.2691457337332844	0.0952531398386702	0.8310629142773795	0.7583553553279059	-0.3666924357977692	-0.09788989098191603	-0.2956768524606244	0.6472381747199183	0.6472381747200996	-0.07614091076856642	-0.173714442428328	0.2611621597393105	0.1391307701876017	0.3027147175404102	0.2137493464374974	0.3236233268472364	-1.757163098691015	0.02890721442526855	-0.5740423353143504	0.642657044269579	-1.857591750815959	-1.857591750815987	-0.2266544492728706	0.01847505645447997	-0.5536461867561425	-0.1688005841915042	-0.09972812104698729	0.04126338667025949	0.01023006891477615	-0.1103119657407005	-0.06414466300080962	-0.0003638722302201438	0.1037076762368326	-44.9915467959829	5.149645872582854	2.194590245798944	2.204307418584729	-433.8525853408735	-52.65406675542544	-17.33851809295048	0.2283119898457179	0.2647922996766744	-0.6261169658629621	-0.6225952402674684	0.2519806468229237	-0.2384868724371298	1.115174236989755	-0.6760926208767067	-0.6760926208766631	-0.3266795071247173	0.3026753213039514	-0.3337604375721864	0.3555134686222342	1.439272574955296e-07	3.120882294066769e-06	-1.954685119274116e-06	3.385373879644364e-07	4.490476538492148e-07	2.541207847758833e-06	4.709061889269305e-07
1.53	-0.2661072426616488	0.09740345560274195	0.8342671978381232	0.7407542545642256	-0.3663922255808931	-0.1036428404558605	-0.2891963232172292	0.6286305974570996	0.6286305974572642	-0.07842604264194017	-0.1735172756756002	0.2556091477529041	0.1374586249140508	0.304930110423913	0.2162645053323898	0.3171665259685766	-1.762775229081715	0.03113418878218776	-0.5764542761173471	0.6533106466654195	-1.863640722437978	-1.863640722437895	-0.2303653447082675	0.02098609170086664	-0.5568805040029894	-0.1656105899002745	-0.09635013444267584	0.03989828565542609	0.0107140248604907	-0.1077563288002629	-0.06379328646892943	-0.001601632866310918	0.1007018562104585	-44.85734319175283	5.547922634665546	2.263347044796168	2.481135911928087	-431.7558611294269	-52.32157871456238	-18.04695760485243	0.2101663395977817	0.2375572863120016	-0.6654018430578141	-0.4882233099500365	0.2079061587262787	-0.2281133947920471	1.019729578290451	-0.5269499399412204	-0.5269499399251096	-0.3919074760190027	0.2291924460190786	-0.3067946937528078	0.3031246937783649	1.343240832888529e-07	3.281739819849418e-06	-1.939176584900879e-06	3.614998501904072e-07	4.454537488415364e-07	2.614172697181943e-06	4.813893913542689e-07
1.54	-0.2630481949807691	0.09957745887614182	0.8374049253512507	0.7231054922223279	-0.3660697755546512	-0.1094170224800195	-0.2826134026823945	0.6099710003768617	0.6099710003766676	-0.08074800605257848	-0.1732942236063342	0.250026087128934	0.1358188560403032	0.3068260393873117	0.2184868483031171	0.3103121173236045	-1.766695414331579	0.0333551762831298	-0.5782888453427723	0.6631353025578115	-1.867995714342995	-1.867995714342801	-0.2340207567144802	0.02365211973575115	-0.5596559142702664	-0.1623253042328085	-0.09297214783861078	0.03853318464024254	0.01119798080561212	-0.1052006918597747	-0.063441909937082	-0.002839393502856994	0.09769603618390495	-44.72501122404876	5.940947184355142	2.339316516507972	2.739078263078957	-429.7139212397402	-52.06371359980527	-18.73782993273304	0.164419205825584	0.2062291148436458	-0.7056385191254831	-0.2842062120994491	0.2507832756275581	-0.1230125569232879	0.9493849363002003	-0.3372966774762025	-0.3372966774761568	-0.3155828212874965	0.3336738790031736	-0.2419790416582314	0.3745717438695907	1.191797937780816e-07	3.44974678949102e-06	-1.879414791622851e-06	3.868198719074186e-07	4.270629457725816e-07	2.660253489573713e-06	4.877267124784683e-07
1.55	-0.2599718392917644	0.1017722447877438	0.8404722049627347	0.7054259801501017	-0.3657250926839028	-0.115207409413932	-0.2759363461129735	0.5912764057559842	0.5912764057566162	-0.08310573442763894	-0.1730442488360845	0.2444176961378746	0.1342125560954758	0.3083889590087589	0.2204231042595024	0.3030866227144611	-1.768929679967444	0.03557849538371681	-0.5797021740118058	0.6721367862693234	-1.870639609929911	-1.870639609929736	-0.2375100271107058	0.02636287653337291	-0.5619382169485316	-0.1589179557696719	-0.08952462487302336	0.03682949472555867	0.01163692651560071	-0.1029458509471241	-0.06273943816583821	-0.004087054040742412	0.0946710704117576	-44.49084331717579	6.328332720926126	2.407168568215806	2.901544547770283	-427.8823807769601	-51.89933132635005	-19.40704830782557	0.1438249016888861	0.180325458544167	-0.7395078838237494	-0.1514197148523284	0.2075290586762643	-0.1371083715050272	0.8546463290236147	-0.1854940463200631	-0.1854940463233722	-0.3629004718221414	0.2425242071218146	-0.2086223419516305	0.3259438702742173	9.765117576476684e-08	3.625991161839675e-06	-1.768665547867566e-06	4.148562121684548e-07	3.916235427634614e-07	2.675359172777201e-06	4.892872573186167e-07
1.56	-0.2568815350942547	0.1039849935834073	0.8434655290377319	0.6877324488263837	-0.3653582920557944	-0.1210092527045473	-0.2691734514583475	0.5725638605699526	0.5725638605712453	-0.08549781577077002	-0.1727666169726254	0.2387890288278366	0.1326407551298359	0.309615741085694	0.2220794251154119	0.2955210100258736	-1.769499264624215	0.03777872774047126	-0.5805801166653082	0.6803029195988936	-1.871585827397596	-1.87158582739744	-0.2408913504281894	0.02918353841019155	-0.5637111780683882	-0.1554255083969643	-0.08607710190791731	0.03512580481028798	0.01207587222669782	-0.1006910100346155	-0.06203696639473148	-0.005334714579434068	0.09164610463932178	-44.26019342505786	6.711938843603503	2.480645341374463	3.050534150472762	-426.1290002932795	-51.80779548398667	-20.05050321813377	0.09719169692382301	0.1502420947484073	-0.773662135014384	0.0487299837200151	0.2461659268610822	-0.01593535381751542	0.7823148599119918	0.002238946370123156	0.002238946370123411	-0.2939934055385969	0.3556548948423414	-0.1401107299765624	0.3915915257839807	7.608802492379823e-08	3.759967553218797e-06	-1.656491433759971e-06	4.374099816179081e-07	3.532128855929014e-07	2.664813670561071e-06	4.876177589459219e-07
1.57	-0.253780708306065	0.1062128917937307	0.8463815803597995	0.6700416514166938	-0.3649694514537644	-0.1268177166711569	-0.2623329365901693	0.5538504688281982	0.5538504688288868	-0.08792259372642944	-0.1724604917589166	0.2331452930491835	0.1311045579985095	0.3104939638235788	0.2234518081627629	0.287642382340939	-1.768384153730461	0.03999022615398135	-0.581029622208303	0.6876654344217537	-1.870807492128283	-1.870807492128238	-0.2440302220450082	0.03206076022856459	-0.5649467497185326	-0.1517920736357717	-0.08272572270402184	0.03338942329746038	0.01246890078812671	-0.09841553820219172	-0.06137084362923389	-0.006712088653175764	0.08871305353787358	-44.06265541202958	7.161167106763027	2.53967225898385	3.221176033370558	-424.5889393838305	-51.62646287721456	-20.66400583973561	0.07480285713606641	0.1235675214202071	-0.8019365255292398	0.1843239712205341	0.2085553187808593	-0.04659669885213471	0.6930268504039266	0.1582894156242362	0.1582894156071654	-0.3182273012208554	0.2564186415719197	-0.1017726352952586	0.3520616192134952	5.448170804826228e-08	3.841108968386e-06	-1.542536231711989e-06	4.531105375528831e-07	3.110881607205418e-07	2.622204186570418e-06	4.819107065571728e-07
